<svg xmlns="http://www.w3.org/2000/svg" width="240" height="240" viewBox="0 0 240 240">
  <path fill="#eb1e27" d="M0 240h240V0H0v240"/>
  <path fill="#211c1c" d="M203 175.2c-2.6 0-26.4.7-31 2-4 .8-10-.7-12.2-1.3-1.3-.5-2.3 0-2.5 1-.5 1.4 0 2.6 1.2 2.6.3.3 5.8 2 10.6 2 1.4 0 2.6 0 4-.5 3.6-.8 23-1.4 30.3-1.6 1.2 0 2-1 2-2.2 0-1.2-1-2-2.2-2"/>
  <path fill="#ec1d27" d="M199.4 106l-76.5 3.5m12.8-1l10.6-23m0 23l18-22.5m0 21.7l12.4-18m1.7 17.3l7-12.5m-7 12.5l8.8 11.5m-23-10.8l11.2 18.2m-29-17.5l8 14.5m-18.7-14.6L141 125m-91.5-15.5h67.3m-15 0l-8.3-21.8m-5.7 21.8l-4.7-22m-8.6 22l-11-14m11 14l-11 15.7M88 109.5L76 127.7m25.8-18.2L92.6 125M139 87.3l1.4.3"/>
  <path fill="#fff" d="M187.5 115.5l-5-6.6 12.5-.8c-2 2-4.4 4.4-7.5 7.2zm-19.6-6l9.6-.4 6.7 9c-2.5 2-5 4-8 5zm-43-7v-2.4c2-1.6 9.5-8 17.5-11l-8.4 17.7-9 .4zm-5.2-5.3c-.7 0-1.3 0-1.8.4-1.6-2-8.4-9-21.7-11.6-7-11-9.2-21-6.8-29.5 2-7 6.8-11.8 10-14.4-.6 6.6 0 12.6 1.5 18v.4c1.3 4.2 3.3 8 6 11.5 8 10.7 20.6 15 27.4 16.6-6.6 3.8-11.6 8.3-12.5 9.3-1-.4-1.4-.5-2.2-.5zm-8.8 30.4l3.8-3.4v6l-3.8-2.5zm-58-16.2h17.5L63 122c-5-3.6-8.2-7.8-10-10.5zm10.3-13L70 107H54c2-2 5-5.5 9.3-8.6zm51.2 4v4.7h-11.2L97 90.3c10.8 2.5 16.3 8 17.5 9.7zM92 89.5l6.8 17.6h-9.3l-3.7-18h.7c2 0 3.8 0 5.6.5zm-10.5 0l3.8 17.6h-9.8l-8.7-11.3C71 93 76 90.5 81.5 89.5zm-9 37.6l-.5-.4c-2-.6-3.7-1.5-5.2-2.5l8.7-12.6H84l-9.7 15-1.8.6zm8-2.5l8.6-13h9.3L91.5 123c-3.7 0-7.5.7-11.2 1.7zm26 1c-2.6-1.4-6-2-10.2-2.6l7-11.6H115v5.7c-.7 1.4-3 5-8.4 8.5zM71 69.4c0-7.4 3.7-13 10.6-17 2.2-1.3 4.5-2.3 6.5-3-1 2-1.7 4-2.4 5.7-2.5 9-.6 19 5.5 30-1.4-.2-2.7-.2-4.4-.2-3.5 0-6.7.5-10 1.2-3.7-5-5.8-10.6-5.8-16.6zM87 32c3.3-4.2 7.8-6.3 12-5.5 1.8.3 3.6 1.2 5 2.7l1 2-2.4 1.6c-1.2 1.3-1.7 2.8-2 3.8-1.7 1-5.8 3.7-9.5 8.2-1.5.4-5 1.3-9 3 0-3.4.3-10 5-15.6zM125.8 20c9.5 0 15 5.5 17.5 8.5-5 0-8.8.8-9.3.8h-.4v.2c-.2 0-.3 0-.5.3-1 1.2-2.4 2-3.4 3-1.7-4.4-5-7-9.2-7-5.8 0-9 3-10.8 5L108 28c2-2.5 7-7.5 17.8-7.5zM164 49.7c0 3-1.2 5.5-3 8C158.3 43 148.7 37 146.7 36c-.4-1-1-2-1.7-2.5l-.6-1c4.5.5 9.7 1.4 13.5 5 4 3.2 6 7.7 6 12zm6.3 21.3c0 5-3 10-7.8 12.4-2-.4-4.5-.7-7-.8 3.3-3.7 6-9.4 6-18.7v-1.4c1.3-1 2.5-2 3.4-3.4 2 2 5.3 6 5.3 11.7zm16.2 26c3.8 2.6 6.5 5 8.4 7l-12.6.6zm-9-5l5.4 3-5.5 9.7-8.7.4zm-12.2-4c2.8 1 5.6 1.6 8.2 2.6l-10.4 15-12 .4zm-46-21c4.3 0 8-1 10.7-2.6 10.5-5 17-16.3 17.5-22.8 3.8 3 9.8 10 9.8 22.3 0 9-2.8 15.4-8.2 18.6l-3 .8c-2 .5-3.7 1.2-5.4 1.8h-.8c-.4 0-19.2-2.5-29.4-16-1.3-1.6-2-3.2-3-5 4.2 2.2 8.4 3 12 3zm-15.7-20c3.2 2.4 8.3 6 13.8 6 3.5 0 6.5-1 9-3.6 7.2-6.8 9.4-12.5 10-15.8 1.7.3 4.2 1 5.7 2.5 1.4 1.4 1.6 3 1.4 5-.3 4.6-5.8 15-15 19.7-7.3 3.5-15 2.5-23.3-2.5-.7-3.7-1-7.5-1-11.5zm8.8-13c1-1.4 3.4-4 8-4 3.2 0 5 2.4 5.6 5-3 1.5-5.6 2-8 1.7-2.6-.2-4.4-1.2-5.7-2.5zm-7 2c.6-.5 1.4-1 1.7-1.4 2 2.3 5 5.5 10.4 6.3h2c4 0 7.6-1 11.4-4-1.3 2.5-3.4 6-7.2 9.4C122 48 120 49 117.4 49c-5.6-.4-11.6-5.8-13.5-7.6 0-1 0-2.2.4-3.3 0 0 .5-1.5 1.2-2zm33.6 70.6l9-19.5 3.8-.3c3 0 6 .3 8.7.7l-15 18.7zm62.5 0V105h-.2v-.4c-.5-.7-11.8-15-33-20 3.7-3.7 6.2-8.7 6.2-13.7 0-8-5-13.4-7.5-15.5.8-2 1.3-3.8 1.3-5.8 0-5.6-2.5-11.2-7.5-15.6-3.8-3-8-4.4-12.3-5-.2-.6-7-12.7-22.5-12.7-11.7 0-18 5.5-20.7 8.7-1.7-1.2-3.5-2.2-5.7-2.5-5.5-1-11.5 1.6-15.8 7-6.5 8-6.3 17-5.8 20.5-6 3.7-11.2 10-11.2 20 0 6.5 2 12.5 6 18C58 94 48.6 107.7 48 108v2.2c0 .8 5 12 18.6 18.8-8.2 2.5-17.5 4.5-29.6 4.5-1.2 0-2 1-2 2 0 1.4 1 2 2 2 15.6 0 26.8-3.4 36.3-6.4 7.2-2 13.2-4 19.6-4 13 0 19.6 7 20 7l4 4.2c.5.5 1 .7 1.4.7.7 0 1.2 0 1.6-.8 1-.7 1-2 0-2.8l-1-1v-31.7c0-.7.5-1.2 1-1.2.6 0 1.3.5 1.3 1.2v30c0 1.3.7 2 1.8 2 1.4 0 2.3-.8 2.3-2V124c1.2 1.6 3.2 3.2 5.6 4.7 1 .5 2 .3 2.8-.7.6-1 .2-2.3-.8-3-5-3-7.2-6.8-7.7-8v-5.5l9.3-.5 4.7 14.5c.2 1 1.2 1.5 2 1.5h.6c1-.5 1.5-1.6 1-2.8l-4-13.3 6.5-.4L153 124c.4.6 1 1 1.8 1 .3 0 .7 0 1-.3 1-.5 1.2-1.7.8-2.7l-6.8-11.8 13.3-.5 9.5 15.3-1.6.7c-1.4.4-2 1.7-1.4 2.8.4.7 1.3 1.2 2 1.2h.8l3.7-2h.4c15.5-7.7 24.2-20 24.6-20.5l.3-.2v-.3M70.6 187.4c-12-16-33.3-11.8-34.2-11.7-1.3.3-2 1.3-1.6 2.5.2 1.3 1.2 2 2.5 1.7 0 0 19.5-4 30 10 1 1 2 2.4 3.2 3.2.4.4 1 .7 1.3.7.7 0 1.2-.5 1.7-1 .8-1 .6-2 0-3l-3-2.8m88.5-12.6l-.6-.5c-1.5-1-16.3-16-27.5-27-1-1-2-1-3 0-.7.7-.7 2 0 3 11.3 11 26 26 27.5 27l.4.7c2 2 7.8 7.5 7.8 11.8 0 1-.4 2-1.3 2.5-1 1.2-2.2 1.7-3.5 1.7-3 0-5.6-2.5-6.2-3l-3.3-3.2-1.2-1-8.8-8.6-3 2.7 9 9 1.3 1c1.7 1.8 6.2 5.8 6.2 8.8.3 1 0 1.5-.7 2-1 1-2 1.4-3 1.4-2.2 0-4.3-2.3-5-3l-2-2.5-10.8-10.8-3 3.2 11 10.7c1.5 1.8 2.4 3.4 3 4.8.3 1.2 0 2.5-1.4 3.7-2 2.2-5 .7-6 0-.5-.8-1-1.6-2-2.5l-9-9.7c-.6-1-2-1-3 0-.7.6-.7 2 0 2.7 0 .4 6.6 7.5 9.3 10 1 1.3 1.7 2.5 2 3.8 0 1.2-.3 2.5-1.3 3.5-.4.5-1 .6-1.5.6-1.2 0-4.5-1-11-7.5-.6-.8-2-.8-2.7 0-1 1-1 2.2 0 3 5.6 6 10 8.7 13.7 8.7 2 0 3.4-.6 4.6-1.7 1.6-1.6 2.6-3.8 2.6-5.8l2.2.3c1.8 0 3.7-.6 5.5-2.3 1.6-1.6 2.5-3.5 2.5-5.5l2.5.5h.2c2 0 4-.8 5.8-2.5 1.2-1.5 2-3.2 2-5 0-.7 0-1.2-.2-1.7.8 0 1.4 0 2 .2 2.4 0 5-1 6.6-2.8 1.5-1.8 2.5-3.8 2.5-5.8 0-6-6.5-12.2-9-15"/>
  <path fill="#211c1c" d="M116.8 207c-2.3 5.5-9.7 12.6-13.2 12.6-.2 0-.5 0-.6-.2-1.6-2 1.3-7 6.5-12.5 2.5-2.4 4.8-4 6.3-4 .6 0 1.2.4 1.5.7 0 .3 0 1.3-.5 3.2zm-26.3 6.5c-2.5-2.5 2-9.8 8-15.6l3.4-3.3c2-1.8 4.5-3.7 6-3.7 1 0 1.4.4 2 1 .8.6 1 1.5 1 2.4 0 4.2-5.6 9.7-8 12.2l-.6.5-1 1c-2.4 2.6-6 6.4-9 6.4-.5 0-1 0-1.8-.8zm-9.6-8c-2.6-2.5 2-9 7.4-14.8 5.6-5.5 9-7 11.2-5.2.7.7 2.3 2.2-.8 6.2l-3.4 3.2c-2.5 2.4-5.5 6-7.5 9.5-2 1.5-5 3.2-7.2 1zm-8-8.8c-1-.8 0-3.3 1-4.7 1.6-2.5 4-5 5.3-6.5l.6-.5c1.6-1.8 4.5-4.8 6-4.8.5 0 .8 0 1 .4.5.4.8.8.8 1.3 0 2.4-3.2 7-6.3 10l-.7.6c-1.8 1.6-4.8 4.6-6.7 4.6-.2 0-.6 0-1-.5zm42.6 2.3c-.6 0-1.2 0-1.8.2.7-1.5 1.2-3.2 1.2-5 0-2-.7-3.7-2.5-5.5-1.2-1.2-2.5-1.8-4.4-1.8-1 0-2 0-3.2.6 0-2.5-1.3-4.2-2.5-5.2-3.2-3.2-7-2.2-10.3 0v-.5c0-2-.6-3.4-2-4.5-1-1.3-2.4-1.6-3.6-1.6-3.5 0-6.8 3-9.4 6l-.5.4c-1.5 1.2-4 4-6 7-3 5.5-2 8.5-.2 10 1.2 1.3 2.5 1.8 4 1.8.7 0 1.3 0 2-.2-.7 2.5-.4 5.2 1.6 7.2 1.4 1.5 3.3 2.3 5.3 2.3.7 0 1.5 0 2.5-.4-.5 2.6 0 4.6 1.7 6.4 1.3 1.2 3 2 5 2s4-1 6-2.3c-.6 2.2-.4 4.2 1 6 1 1.2 2.6 1.7 4 1.7 6 0 14.5-9.5 17-15.6 1.6-4 .5-6.4-.6-7.4-1.4-1.2-2.6-2-4.4-2M104 159c0-9 14-19.5 21-24.4 1.4-1.2 2.6-2 3.5-2.5 4.6-4 14.5-6 26.3-6 9.3 0 16.8 4 21.6 7.4 6 4.6 24.7 4.7 26.7 4.7 1.4 0 2.3-1 2.3-2 0-1.3-1-2-2.2-2-7.4 0-20.5-1.4-24-4-5.4-4-14-8.6-24-8.6-13 0-23.6 2.7-29 7.2l-3.4 2.5c-7.8 6-22.7 16.6-22.7 27.6 0 1.3-1 11.5 3.6 16.5 1.8 2 4 3 6.7 3 2.5 0 4.2-.8 5.7-2 2.8-3.3 2.5-9 2.5-13.4-.2-1.7-.4-4 0-4.6 2.3-3 7.5-7.8 11.3-7.8 1 0 2-.8 2-2s-1-2-2.2-2c-6.2 0-12.5 6.7-14.7 9.3-1.4 1.5-1 4-1 7.5.3 3.5.5 8.2-1.2 10-.5.5-1.3 1-2.8 1-1.5 0-2.5-.5-3.5-1.5-3-3.3-3-10.8-2.7-13.4"/>
</svg>
